<?xml version="1.0" encoding="UTF-8" standalone="no"?>
<!-- Created with Inkscape (http://www.inkscape.org/) -->

<svg
   width="10mm"
   height="10mm"
   viewBox="0 0 110 110"
   version="1.1"
   id="svg5"
   xmlns="http://www.w3.org/2000/svg"
   xmlns:svg="http://www.w3.org/2000/svg">
  <defs
     id="defs2" />
  <g
     id="layer1"
     transform="translate(-22.164305,-88.735952)"
     >
    <g
       id="g1505">
      <path
         style="fill:none;stroke:white;stroke-width:2;stroke-opacity:1"
         d="m 76.373166,137.90681 c 0,0 2.277704,-5.90828 1.581318,-9.71499 -0.924752,-5.05505 -9.496546,-11.94199 -9.727653,-17.32322 -1.332464,-11.301103 4.773182,-15.836556 10.922918,-21.919362 -6.838594,8.25133 -8.214971,16.615502 -6.059091,21.786102 0.832151,1.9958 5.728402,6.98759 9.586909,12.67239 3.858508,5.68479 -0.388732,14.64192 -0.388732,14.64192"
         id="path1199" />
      <path
         style="fill:none;stroke:white;stroke-width:2;stroke-opacity:1"
         d="m 81.986017,153.04059 c 0,0 -2.573983,5.89554 -1.877597,9.70225 0.924752,5.05505 9.496546,11.94199 9.727653,17.32322 1.332464,11.3011 -4.773182,15.83656 -10.922918,21.91936 6.838594,-8.25133 8.214971,-16.6155 6.059091,-21.7861 -0.832151,-1.9958 -5.728402,-6.98759 -9.586909,-12.67239 -3.858508,-5.68479 0.518288,-14.65315 0.518288,-14.65315"
         id="use1345" />
      <path
         style="fill:none;stroke:white;stroke-width:2;stroke-opacity:1"
         d="m 86.619445,142.45606 c 0,0 6.01655,2.52983 9.82326,1.83344 5.055045,-0.92475 11.941985,-9.49654 17.323215,-9.72765 11.3011,-1.33246 15.83656,4.77318 21.91936,10.92292 -8.25133,-6.8386 -16.6155,-8.21497 -21.7861,-6.05909 -1.9958,0.83215 -6.98759,5.7284 -12.67239,9.58691 -5.684785,3.8585 -14.649116,-0.37175 -14.649116,-0.37175"
         id="path1355" />
      <path
         style="fill:none;stroke:white;stroke-width:2;stroke-opacity:1"
         d="m 71.610578,148.365 c 0,0 -6.183691,-2.39483 -9.990401,-1.69845 -5.05505,0.92475 -11.94199,9.49655 -17.32322,9.72766 -11.301103,1.33246 -15.836556,-4.77319 -21.919362,-10.92292 8.25133,6.83859 16.615502,8.21497 21.786102,6.05909 1.9958,-0.83215 6.98759,-5.7284 12.67239,-9.58691 5.68479,-3.85851 14.90294,0.34505 14.90294,0.34505"
         id="use1357" />
      <path
         style="fill:none;stroke:white;stroke-width:2;stroke-opacity:1"
         d="m 82.288835,138.04965 c 0,0 6.134508,-2.28254 8.333835,-5.46671 2.92056,-4.22835 1.72919,-15.15932 5.37088,-19.12785 7.04889,-8.93327 14.57328,-7.82299 23.223,-7.77566 -10.6702,0.99896 -17.5578,5.94008 -19.689527,11.12068 -0.822823,1.99966 -0.890383,8.99156 -2.181763,15.7397 -1.29138,6.74812 -10.712714,9.92129 -10.712714,9.92129"
         id="path1369" />
      <path
         style="fill:none;stroke:white;stroke-width:2;stroke-opacity:1"
         d="m 71.739027,142.28852 c 0,0 -1.767631,-6.28683 -4.951801,-8.48615 -4.22835,-2.92056 -15.159319,-1.72919 -19.127849,-5.37088 -8.93327,-7.04889 -7.82299,-14.57328 -7.77566,-23.223 0.99896,10.6702 5.94008,17.5578 11.12068,19.68953 1.99966,0.82282 8.991559,0.89038 15.739699,2.18176 6.74812,1.29138 9.62907,10.82703 9.62907,10.82703"
         id="path1382" />
      <path
         style="fill:none;stroke:white;stroke-width:2;stroke-opacity:1"
         d="m 86.577674,148.64084 c 0,0 2.417524,5.78263 5.601694,7.98196 4.22835,2.92056 15.159312,1.72919 19.127842,5.37088 8.93327,7.04889 7.82299,14.57328 7.77566,23.223 -0.99896,-10.6702 -5.94008,-17.5578 -11.12068,-19.68953 -1.99966,-0.82282 -8.991556,-0.89038 -15.739692,-2.18176 -6.74812,-1.29138 -10.236481,-10.3048 -10.236481,-10.3048"
         id="path1411" />
      <path
         style="fill:none;stroke:white;stroke-width:2;stroke-opacity:1"
         d="m 75.903625,152.87378 c 0,0 -6.120542,2.31517 -8.319872,5.49934 -2.92056,4.22835 -1.72919,15.15931 -5.37088,19.12784 -7.048885,8.93327 -14.573275,7.82299 -23.222995,7.77566 10.6702,-0.99896 17.557795,-5.94008 19.689525,-11.12068 0.82282,-1.99966 0.89038,-8.99155 2.18176,-15.73969 1.29138,-6.74812 10.749415,-10.05125 10.749415,-10.05125"
         id="path1447" />
         
    </g>
     <animateTransform
      attributeName="transform"
      begin="0s"
      dur="10s"
      type="rotate"
      from="0 80 80"
   to="360 80 80"
      repeatCount="indefinite" />
  </g>
</svg>
